<svg width="50" height="50" viewBox="0 0 50 50" fill="none" xmlns="http://www.w3.org/2000/svg">
<path d="M25 0C26.4323 0 27.8158 0.187174 29.1504 0.561523C30.485 0.935872 31.7301 1.45671 32.8857 2.12402C34.0413 2.79134 35.0911 3.60514 36.0352 4.56543C36.9792 5.52572 37.793 6.58366 38.4766 7.73926C39.1602 8.89486 39.6891 10.14 40.0635 11.4746C40.4378 12.8092 40.625 14.1927 40.625 15.625C40.625 16.748 40.4948 17.8141 40.2344 18.8232C39.974 19.8324 39.5833 20.8496 39.0625 21.875L25 50L10.9375 21.875C10.4329 20.8659 10.0505 19.8568 9.79004 18.8477C9.52962 17.8385 9.39128 16.7643 9.375 15.625C9.375 14.1927 9.56217 12.8092 9.93652 11.4746C10.3109 10.14 10.8317 8.89486 11.499 7.73926C12.1663 6.58366 12.9801 5.53385 13.9404 4.58984C14.9007 3.64583 15.9587 2.83203 17.1143 2.14844C18.2699 1.46484 19.515 0.935872 20.8496 0.561523C22.1842 0.187174 23.5677 0 25 0ZM36.6211 20.6543V20.6299L36.6455 20.6055C37.0524 19.8405 37.3617 19.0348 37.5732 18.1885C37.7848 17.3421 37.8906 16.4876 37.8906 15.625C37.8906 13.8509 37.557 12.1826 36.8896 10.6201C36.2223 9.05762 35.2946 7.69043 34.1064 6.51855C32.9183 5.34668 31.5511 4.42708 30.0049 3.75977C28.4587 3.09245 26.7904 2.75065 25 2.73438C23.2259 2.73438 21.5576 3.06803 19.9951 3.73535C18.4326 4.40267 17.0654 5.3304 15.8936 6.51855C14.7217 7.70671 13.8021 9.07389 13.1348 10.6201C12.4674 12.1663 12.1257 13.8346 12.1094 15.625C12.1094 16.4876 12.2152 17.3421 12.4268 18.1885C12.6383 19.0348 12.9476 19.8405 13.3545 20.6055V20.6299L13.3789 20.6543L25 43.8965L36.6211 20.6543ZM25 6.44531C26.2695 6.44531 27.4577 6.68132 28.5645 7.15332C29.6712 7.62533 30.6478 8.28451 31.4941 9.13086C32.3405 9.97721 32.9915 10.9456 33.4473 12.0361C33.903 13.1266 34.1471 14.3229 34.1797 15.625C34.1797 16.8945 33.9437 18.0827 33.4717 19.1895C32.9997 20.2962 32.3405 21.2728 31.4941 22.1191C30.6478 22.9655 29.6794 23.6165 28.5889 24.0723C27.4984 24.528 26.3021 24.7721 25 24.8047C23.7305 24.8047 22.5423 24.5687 21.4355 24.0967C20.3288 23.6247 19.3522 22.9655 18.5059 22.1191C17.6595 21.2728 17.0085 20.3044 16.5527 19.2139C16.097 18.1234 15.8529 16.9271 15.8203 15.625C15.8203 14.3555 16.0563 13.1673 16.5283 12.0605C17.0003 10.9538 17.6595 9.97721 18.5059 9.13086C19.3522 8.28451 20.3206 7.63346 21.4111 7.17773C22.5016 6.72201 23.6979 6.47786 25 6.44531ZM25 22.0703C25.8952 22.0703 26.7334 21.9076 27.5146 21.582C28.2959 21.2565 28.9795 20.7926 29.5654 20.1904C30.1514 19.5882 30.6071 18.9046 30.9326 18.1396C31.2581 17.3747 31.429 16.5365 31.4453 15.625C31.4453 14.7298 31.2826 13.8916 30.957 13.1104C30.6315 12.3291 30.1676 11.6455 29.5654 11.0596C28.9632 10.4736 28.2796 10.0179 27.5146 9.69238C26.7497 9.36686 25.9115 9.19596 25 9.17969C24.1048 9.17969 23.2666 9.34245 22.4854 9.66797C21.7041 9.99349 21.0205 10.4574 20.4346 11.0596C19.8486 11.6618 19.3929 12.3454 19.0674 13.1104C18.7419 13.8753 18.571 14.7135 18.5547 15.625C18.5547 16.5202 18.7174 17.3584 19.043 18.1396C19.3685 18.9209 19.8324 19.6045 20.4346 20.1904C21.0368 20.7764 21.7204 21.2321 22.4854 21.5576C23.2503 21.8831 24.0885 22.054 25 22.0703Z" fill="white"/>
</svg>
