<svg xmlns="http://www.w3.org/2000/svg" viewBox="0 0 109.64 109.63"><g id="Layer_2" data-name="Layer 2"><g id="Layer_1-2" data-name="Layer 1"><path d="M77.26,22.44,75.41,20.6h0L54.82,0V10l2,2,8.77,8.77L57.32,29.1a19,19,0,0,0-2.5,3V50.65a18.07,18.07,0,0,0,1.9,2.26A16.3,16.3,0,0,0,59,54.79l0,0,0,0H77.43l0,0,0,0a18.88,18.88,0,0,0,3-2.48l11.39-11.4,1.9-1.9ZM80.93,44.2a.92.92,0,0,1-.44,1.55,2.5,2.5,0,0,1-1.59-.2,2.57,2.57,0,0,1-.7-.5l-.07.08-2.5,2.49a9.29,9.29,0,0,1-7,2.89,9.15,9.15,0,0,1-6.75-2.73A9.26,9.26,0,0,1,59.07,41,9.39,9.39,0,0,1,62,34l2.51-2.51.06-.06a2.23,2.23,0,0,1-.48-.71,2.4,2.4,0,0,1-.19-1.56.92.92,0,0,1,1.55-.44l.92.92,4-4L84,39.23l-4,4Z" style="fill:#fff"/><path d="M75.36,20.54l0,.05,0,0Zm-.08-.08.13.13,0,0,.13-.13Zm34.31,34.32-1.44-1.45-3.54-3.54L93.83,39l8.28-8.29A17.4,17.4,0,0,0,107,22.34a17,17,0,0,0,.41-2.87c0-.23,0-.44,0-.67a14.47,14.47,0,0,0-.06-2.09,15.2,15.2,0,0,0-4.63-9.79A15.1,15.1,0,0,0,93.47,2.4a15.75,15.75,0,0,0-2.59-.11l-.46,0A16.5,16.5,0,0,0,86.34,3,17.4,17.4,0,0,0,78.9,7.52l-8.27,8.29L69,17.47l-3.35,3.34,4.79,4.8L84,39.23l4.8,4.8L99.61,54.81v0h10ZM77.26,22.44,75.41,20.6h0l0,0,.13-.13,8.08-8.08.15-.15a10,10,0,0,1,3-2.1l.35-.15a9.28,9.28,0,0,1,3.69-.63,9.75,9.75,0,0,1,2.46.3A8.76,8.76,0,0,1,97.58,12a9.18,9.18,0,0,1,2.59,4.77,10.56,10.56,0,0,1,.2,2.05,9.34,9.34,0,0,1-.36,2.71,7.42,7.42,0,0,1-.45,1.22,9.76,9.76,0,0,1-2.14,3l-.43.43-8,8Zm-2-2,.13.13,0,0,.13-.13Zm.08.08,0,.05,0,0Z" style="fill:#fff"/><path d="M80,43.21l0,.06-.15.15L78.2,45.05l-.07.08A49.23,49.23,0,0,1,64.52,31.49l.06-.06,1.67-1.66.13-.13,0,.05a46.45,46.45,0,0,0,5.16-2.9l11.3,11.3A46.11,46.11,0,0,0,80,43.21Z" style="fill:#fff"/><path d="M97.29,24.11a46.42,46.42,0,0,0-10,8.34l-10-10A46.66,46.66,0,0,0,85.8,12.26a4.39,4.39,0,0,1,2.26,1.2l8,8A4.34,4.34,0,0,1,97.29,24.11Z" style="fill:#fff"/><path d="M87.14,10c-.43.78-.88,1.55-1.34,2.31a4.34,4.34,0,0,0-2.15.09l.15-.15a10,10,0,0,1,3-2.1Z" style="fill:#fff"/><path d="M99.56,22.79a9.88,9.88,0,0,1-2.14,3l-.43.43a4.27,4.27,0,0,0,.3-2.14C98,23.65,98.79,23.21,99.56,22.79Z" style="fill:#fff"/><path d="M97,26.25l-8,8L89,34.14l-.06-.06-1.63-1.63a46.42,46.42,0,0,1,10-8.34A4.27,4.27,0,0,1,97,26.25Z" style="fill:#101628"/><path d="M84,39.23l-4,4,0,0a45.22,45.22,0,0,1,2.93-5.12Z" style="fill:#101628"/><path d="M71.58,26.78a44.9,44.9,0,0,1-5.16,2.9l0,0,4-4Z" style="fill:#101628"/><path d="M85.8,12.26a46.66,46.66,0,0,1-8.54,10.18L75.41,20.6h0l0,0,.13-.13,8.08-8.08A4.34,4.34,0,0,1,85.8,12.26Z" style="fill:#101628"/><path d="M77,87.15,75.18,89v0L54.59,109.6v-10l2-2,8.76-8.78L57.1,80.5a19,19,0,0,1-2.51-3V58.94a17.73,17.73,0,0,1,4.15-4.14l0,0,0,0H77.21l0,0,0,0a18.52,18.52,0,0,1,3,2.49l11.4,11.39,1.89,1.91ZM80.71,65.4a.92.92,0,0,0-.44-1.55,2.47,2.47,0,0,0-1.6.2,2.72,2.72,0,0,0-.69.49l-.08-.07L75.41,62a9.34,9.34,0,0,0-7-2.89,9.12,9.12,0,0,0-6.75,2.73,9.23,9.23,0,0,0-2.79,6.81,9.37,9.37,0,0,0,2.95,7l2.5,2.5.06.06a2.54,2.54,0,0,0-.48.71,2.48,2.48,0,0,0-.19,1.56.91.91,0,0,0,1.55.44l.92-.92,4,4L83.8,70.36l-4-4Z" style="fill:#fff"/><path d="M75.13,89.06l.05,0,0,0Zm-.07.07.12-.12,0,0,.12.13Zm34.31-34.32-1.45,1.46-3.53,3.53L93.6,70.59l8.28,8.28a17.36,17.36,0,0,1,4.84,8.38,16,16,0,0,1,.42,2.88c0,.22,0,.44,0,.66a16.19,16.19,0,0,1,0,2.1A16,16,0,0,1,93.25,107.2a15.8,15.8,0,0,1-2.59.11c-.16,0-.31,0-.46,0a16.58,16.58,0,0,1-4.09-.67,17.38,17.38,0,0,1-7.44-4.54L70.4,93.79l-1.67-1.66-3.35-3.35L70.18,84,83.8,70.36l4.79-4.79L99.38,54.78v0h10ZM77,87.15,75.18,89v0l0,0,.12.13,8.08,8.08.15.15a10,10,0,0,0,3,2.09l.35.15a9.16,9.16,0,0,0,3.7.63,9.37,9.37,0,0,0,2.46-.3,8.71,8.71,0,0,0,4.29-2.41A9.28,9.28,0,0,0,100,92.78a10.39,10.39,0,0,0,.19-2A9.81,9.81,0,0,0,99.79,88a8.93,8.93,0,0,0-.45-1.22,9.88,9.88,0,0,0-2.14-3l-.43-.43-8-8Zm-2,2,.12-.12,0,0,.12.13Zm.07-.07.05,0,0,0Z" style="fill:#fff"/><path d="M79.72,66.38l.06,0-.15-.15L78,64.54l-.08-.07A49.46,49.46,0,0,0,64.29,78.1l.06.06L66,79.82l.13.13,0,0a45.57,45.57,0,0,1,5.16,2.9l11.3-11.3A47.9,47.9,0,0,1,79.72,66.38Z" style="fill:#fff"/><path d="M97.07,85.49a46.52,46.52,0,0,1-10-8.34l-10,10a46.33,46.33,0,0,1,8.54,10.17,4.28,4.28,0,0,0,2.26-1.2l8-8A4.41,4.41,0,0,0,97.07,85.49Z" style="fill:#fff"/><path d="M86.91,99.64c-.43-.78-.88-1.55-1.34-2.31a4.47,4.47,0,0,1-2.15-.08l.15.15a10,10,0,0,0,3,2.09Z" style="fill:#fff"/><path d="M99.34,86.8a10.18,10.18,0,0,0-2.14-3l-.43-.42a4.37,4.37,0,0,1,.3,2.14C97.81,86,98.57,86.39,99.34,86.8Z" style="fill:#fff"/><path d="M96.77,83.35l-8-8-.08.08,0,.05L87,77.15a46.52,46.52,0,0,0,10,8.34A4.37,4.37,0,0,0,96.77,83.35Z" style="fill:#101628"/><path d="M83.8,70.36l-4-4,0,0a47.9,47.9,0,0,0,2.93,5.13Z" style="fill:#101628"/><path d="M71.35,82.81a46.45,46.45,0,0,0-5.16-2.9l0,0,4,4Z" style="fill:#101628"/><path d="M85.57,97.33A46.33,46.33,0,0,0,77,87.16L75.18,89h0l0,0,.13.13,8.08,8.08A4.47,4.47,0,0,0,85.57,97.33Z" style="fill:#101628"/><path d="M32.38,87.15,34.23,89v0L54.82,109.6v-10l-2-2L44,88.78l8.29-8.28a18.93,18.93,0,0,0,2.5-3V58.94a16.54,16.54,0,0,0-1.9-2.25,17.13,17.13,0,0,0-2.24-1.89l0,0,0,0H32.21l0,0,0,0a19,19,0,0,0-3,2.49L17.71,68.68l-1.9,1.91ZM28.71,65.4a.92.92,0,0,1,.44-1.55,2.44,2.44,0,0,1,1.59.2,2.77,2.77,0,0,1,.7.49l.07-.07L34,62a9.33,9.33,0,0,1,7-2.89,9.15,9.15,0,0,1,6.75,2.73,9.26,9.26,0,0,1,2.78,6.81,9.4,9.4,0,0,1-2.94,7l-2.5,2.5-.07.06a2.35,2.35,0,0,1,.48.71,2.48,2.48,0,0,1,.2,1.56.92.92,0,0,1-1.56.44L43.26,80l-4,4L25.62,70.36l4-4Z" style="fill:#fff"/><path d="M34.28,89.06l-.05,0,0,0Zm.08.07L34.23,89l0,0-.13.13ZM.05,54.81l1.44,1.46L5,59.8,15.81,70.59,7.53,78.87a17.44,17.44,0,0,0-4.84,8.38,16.94,16.94,0,0,0-.41,2.88c0,.22,0,.44,0,.66a14.57,14.57,0,0,0,.06,2.1,15.18,15.18,0,0,0,4.63,9.78,15.17,15.17,0,0,0,9.24,4.53,15.75,15.75,0,0,0,2.59.11c.16,0,.31,0,.46,0a16.5,16.5,0,0,0,4.08-.67,17.32,17.32,0,0,0,7.44-4.54L39,93.79l1.67-1.66L44,88.78,39.24,84,25.62,70.36l-4.8-4.79L10,54.78v0H.05ZM32.38,87.15,34.23,89v0l0,0-.13.13L26,97.25l-.15.15a10,10,0,0,1-3,2.09c-.12.06-.24.1-.36.15a9.08,9.08,0,0,1-3.69.63,9.32,9.32,0,0,1-2.46-.3,8.67,8.67,0,0,1-4.29-2.41,9.21,9.21,0,0,1-2.59-4.78,10.38,10.38,0,0,1-.2-2A9.45,9.45,0,0,1,9.63,88a8.93,8.93,0,0,1,.45-1.22,9.88,9.88,0,0,1,2.14-3l.43-.43,8-8Zm2,2L34.23,89l0,0-.13.13Zm-.08-.07-.05,0,0,0Z" style="fill:#fff"/><path d="M29.69,66.38l-.05,0,.15-.15,1.65-1.64.07-.07A49.36,49.36,0,0,1,45.13,78.1l-.07.06-1.67,1.66-.13.13,0,0a46.45,46.45,0,0,0-5.16,2.9l-11.3-11.3A46.25,46.25,0,0,0,29.69,66.38Z" style="fill:#fff"/><path d="M12.35,85.49a47,47,0,0,0,10-8.34l10,10a46.61,46.61,0,0,0-8.54,10.17,4.35,4.35,0,0,1-2.26-1.2l-8-8A4.34,4.34,0,0,1,12.35,85.49Z" style="fill:#fff"/><path d="M22.5,99.64c.43-.78.88-1.55,1.34-2.31A4.46,4.46,0,0,0,26,97.25l-.15.15a10,10,0,0,1-3,2.09C22.74,99.55,22.62,99.59,22.5,99.64Z" style="fill:#fff"/><path d="M10.08,86.8a10,10,0,0,1,2.14-3l.43-.42a4.25,4.25,0,0,0-.3,2.14C11.61,86,10.85,86.39,10.08,86.8Z" style="fill:#fff"/><path d="M12.65,83.35l8-8,.07.08.06.05,1.64,1.64a47,47,0,0,1-10,8.34A4.25,4.25,0,0,1,12.65,83.35Z" style="fill:#101628"/><path d="M25.62,70.36l4-4,.06,0a48,48,0,0,1-2.94,5.13Z" style="fill:#101628"/><path d="M38.06,82.81a46.45,46.45,0,0,1,5.16-2.9l0,0-4,4Z" style="fill:#101628"/><path d="M23.84,97.33a46.61,46.61,0,0,1,8.54-10.17L34.23,89h0l0,0-.13.13L26,97.25A4.46,4.46,0,0,1,23.84,97.33Z" style="fill:#101628"/><path d="M32.38,22.44l1.85-1.84h0L54.82,0V10l-2,2L44,20.81l8.29,8.29a19,19,0,0,1,2.5,3V50.65a17.34,17.34,0,0,1-1.91,2.26,15.65,15.65,0,0,1-2.23,1.88l0,0s0,0,0,0H32.21l0,0,0,0a18.88,18.88,0,0,1-3-2.48L17.71,40.91,15.81,39ZM28.71,44.2a.92.92,0,0,0,.44,1.55,2.5,2.5,0,0,0,1.59-.2,2.57,2.57,0,0,0,.7-.5l.07.08L34,47.62a9.33,9.33,0,0,0,7,2.89,9.15,9.15,0,0,0,6.75-2.73A9.26,9.26,0,0,0,50.57,41a9.39,9.39,0,0,0-2.94-7l-2.51-2.51-.06-.06a2.6,2.6,0,0,0,.67-2.27.92.92,0,0,0-1.55-.44l-.92.92-4-4L25.61,39.23l4,4Z" style="fill:#fff"/><path d="M34.28,20.54l-.05.05,0,0Zm.08-.08-.13.13,0,0-.13-.13ZM.05,54.78l1.44-1.45L5,49.79,15.81,39,7.53,30.72a17.4,17.4,0,0,1-4.84-8.38,18,18,0,0,1-.42-2.87c0-.23,0-.44,0-.67a14.47,14.47,0,0,1,.06-2.09A15.2,15.2,0,0,1,6.93,6.92,15.1,15.1,0,0,1,16.17,2.4a15.75,15.75,0,0,1,2.59-.11l.46,0A16.5,16.5,0,0,1,23.3,3a17.4,17.4,0,0,1,7.44,4.53L39,15.81l1.67,1.66L44,20.81l-4.79,4.8L25.61,39.23,20.82,44,10,54.81v0H.05ZM32.38,22.44l1.85-1.84h0l0,0-.13-.13L26,12.35l-.15-.15a10,10,0,0,0-3-2.1L22.5,10a9.28,9.28,0,0,0-3.69-.63,9.75,9.75,0,0,0-2.46.3A8.76,8.76,0,0,0,12.06,12a9.18,9.18,0,0,0-2.59,4.77,10.56,10.56,0,0,0-.2,2.05,9.34,9.34,0,0,0,.36,2.71,6.61,6.61,0,0,0,.45,1.22,9.6,9.6,0,0,0,2.14,3l.42.43,8,8Zm2-2-.13.13,0,0-.13-.13Zm-.08.08-.05.05,0,0Z" style="fill:#fff"/><path d="M29.69,43.21l-.05.06.15.15,1.65,1.63.07.08A49.36,49.36,0,0,0,45.12,31.49l-.06-.06-1.67-1.66-.13-.13,0,.05a46.45,46.45,0,0,1-5.16-2.9l-11.3,11.3A47.76,47.76,0,0,1,29.69,43.21Z" style="fill:#fff"/><path d="M12.35,24.11a46.42,46.42,0,0,1,10,8.34l10-10a46.39,46.39,0,0,1-8.54-10.18,4.39,4.39,0,0,0-2.26,1.2l-8,8A4.34,4.34,0,0,0,12.35,24.11Z" style="fill:#fff"/><path d="M22.5,10c.43.78.88,1.55,1.34,2.31a4.34,4.34,0,0,1,2.15.09l-.15-.15a10,10,0,0,0-3-2.1Z" style="fill:#fff"/><path d="M10.08,22.79a9.88,9.88,0,0,0,2.14,3l.43.43a4.27,4.27,0,0,1-.3-2.14C11.61,23.65,10.85,23.21,10.08,22.79Z" style="fill:#fff"/><path d="M12.65,26.25l8,8,.07-.07.06-.06,1.63-1.63a46.42,46.42,0,0,0-10-8.34A4.27,4.27,0,0,0,12.65,26.25Z" style="fill:#101628"/><path d="M25.62,39.23l4,4,.05,0a45.22,45.22,0,0,0-2.93-5.12Z" style="fill:#101628"/><path d="M38.06,26.78a44.9,44.9,0,0,0,5.16,2.9l0,0-4-4Z" style="fill:#101628"/><path d="M23.84,12.26a46.39,46.39,0,0,0,8.54,10.18l1.85-1.84h0l0,0-.13-.13L26,12.35A4.34,4.34,0,0,0,23.84,12.26Z" style="fill:#101628"/><path d="M54.82,0,0,54.82l54.82,54.81,54.82-54.81ZM10.58,54.82,54.82,10.6,99,54.82,54.82,99Z" style="fill:#f3a71d"/><rect x="13.29" y="75.69" width="33.26" height="7.49" transform="translate(64.94 2.11) rotate(45)" style="fill:#fff"/><rect x="13.73" y="26.23" width="32.82" height="7.49" transform="translate(-12.37 30.09) rotate(-45)" style="fill:#fff"/><rect x="63.18" y="26.27" width="32.72" height="7.49" transform="translate(44.52 -47.45) rotate(45)" style="fill:#fff"/><rect x="63.16" y="75.89" width="32.72" height="7.49" transform="translate(-33.02 79.56) rotate(-45)" style="fill:#fff"/><rect x="20.43" y="26.29" width="19.29" height="7.49" transform="translate(-12.43 30.07) rotate(-45)" style="fill:#101628"/><rect x="69.9" y="75.86" width="19.29" height="7.49" transform="translate(-32.99 79.57) rotate(-45)" style="fill:#101628"/><rect x="69.93" y="26.31" width="19.29" height="7.49" transform="translate(44.56 -47.47) rotate(45)" style="fill:#101628"/><rect x="20.37" y="75.78" width="19.29" height="7.49" transform="translate(65.03 2.07) rotate(45)" style="fill:#101628"/><rect x="51.46" y="32.14" width="6.69" height="18.38" style="fill:#fff"/><rect x="64.97" y="45.59" width="6.69" height="18.38" transform="translate(13.53 123.1) rotate(-90)" style="fill:#fff"/><rect x="38.23" y="45.59" width="6.69" height="18.38" transform="translate(-13.21 96.35) rotate(-90)" style="fill:#fff"/><rect x="51.46" y="59.08" width="6.69" height="18.38" style="fill:#fff"/></g></g></svg>