<svg xmlns="http://www.w3.org/2000/svg" viewBox="0 0 241.52 81.32"><g id="Layer_2" data-name="Layer 2"><g id="Layer_7" data-name="Layer 7"><g id="sedan"><polygon points="112.55 9.32 112.55 27.06 88 27.06 112.55 9.32" style="fill:#f3a71d"/><rect x="116.83" y="9.32" width="56.69" height="17.74" style="fill:#f3a71d"/><polygon points="199.55 27.06 177.98 27.06 177.98 9.32 199.55 27.06" style="fill:#f3a71d"/><path d="M238.93,42.19v-22H205.14L179.46,0H108.53L79.6,20.92l-5.31,3.84-44.64,7L11.24,36.94,6.65,38.22,0,50.45,1.52,58.7l3.37,5,1.76,3.43h25a16.2,16.2,0,0,0,32.14,0H175a16.2,16.2,0,1,0,31.47-7.09l29.85-1.39,2.44-5.81h2.75V44ZM47.69,71.67a6.55,6.55,0,1,1,6.55-6.55A6.54,6.54,0,0,1,47.69,71.67Zm143.39,0a6.55,6.55,0,1,1,6.55-6.55A6.54,6.54,0,0,1,191.08,71.67Zm46.78-21.22-2.76.61-2.44,5.19h-28A16.2,16.2,0,0,0,175,63.59H63.82a16.2,16.2,0,0,0-32.26,0H9.78L6.88,59,4,50.45l.1-.16h8.35l4.51-10.72v0l.17,0L30.43,35.1,65,29.92l15.07-3L82.61,25,111,4h67.26l27.21,20.49h28.13V43.41l4.28,2.14Z" style="fill:#f3a71d"/></g></g></g></svg>