<svg width="50" height="50" viewBox="0 0 50 50" fill="none" xmlns="http://www.w3.org/2000/svg">
<path d="M25 50C22.7051 50 20.4915 49.707 18.3594 49.1211C16.2272 48.5352 14.2334 47.6969 12.3779 46.6064C10.5225 45.516 8.83789 44.2139 7.32422 42.7002C5.81055 41.1865 4.50846 39.4938 3.41797 37.6221C2.32747 35.7503 1.48926 33.7565 0.90332 31.6406C0.317383 29.5247 0.016276 27.3112 0 25C0 22.7051 0.292969 20.4915 0.878906 18.3594C1.46484 16.2272 2.30306 14.2334 3.39355 12.3779C4.48405 10.5225 5.78613 8.83789 7.2998 7.32422C8.81348 5.81055 10.5062 4.50846 12.3779 3.41797C14.2497 2.32747 16.2435 1.48926 18.3594 0.90332C20.4753 0.317383 22.6888 0.016276 25 0C27.2949 0 29.5085 0.292969 31.6406 0.878906C33.7728 1.46484 35.7666 2.30306 37.6221 3.39355C39.4775 4.48405 41.1621 5.78613 42.6758 7.2998C44.1895 8.81348 45.4915 10.5062 46.582 12.3779C47.6725 14.2497 48.5107 16.2354 49.0967 18.335C49.6826 20.4346 49.9837 22.6562 50 25C50 27.2949 49.707 29.5085 49.1211 31.6406C48.5352 33.7728 47.6969 35.7666 46.6064 37.6221C45.516 39.4775 44.2139 41.1621 42.7002 42.6758C41.1865 44.1895 39.4938 45.4915 37.6221 46.582C35.7503 47.6725 33.7646 48.5107 31.665 49.0967C29.5654 49.6826 27.3438 49.9837 25 50ZM5.24902 34.375C5.86751 35.6934 6.61621 36.9303 7.49512 38.0859C8.37402 39.2415 9.35059 40.3076 10.4248 41.2842C11.499 42.2607 12.6628 43.1152 13.916 43.8477C15.1693 44.5801 16.4795 45.1904 17.8467 45.6787C17.2607 44.8649 16.7318 44.0023 16.2598 43.0908C15.7878 42.1794 15.3727 41.2435 15.0146 40.2832C14.6566 39.3229 14.3392 38.3382 14.0625 37.3291C13.7858 36.32 13.5579 35.3353 13.3789 34.375H5.24902ZM3.125 25C3.125 27.1647 3.42611 29.248 4.02832 31.25H12.8906C12.7604 30.2083 12.6628 29.1748 12.5977 28.1494C12.5326 27.124 12.5 26.0742 12.5 25C12.5 23.9421 12.5326 22.9004 12.5977 21.875C12.6628 20.8496 12.7604 19.8079 12.8906 18.75H4.02832C3.42611 20.752 3.125 22.8353 3.125 25ZM25 3.125C24.2025 3.125 23.4619 3.34473 22.7783 3.78418C22.0947 4.22363 21.4518 4.80143 20.8496 5.51758C20.2474 6.23372 19.7266 7.03939 19.2871 7.93457C18.8477 8.82975 18.4326 9.74935 18.042 10.6934C17.6514 11.6374 17.3503 12.5326 17.1387 13.3789C16.9271 14.2253 16.7399 14.974 16.5771 15.625H33.4229C33.2926 14.9902 33.1055 14.2415 32.8613 13.3789C32.6172 12.5163 32.3161 11.6211 31.958 10.6934C31.5999 9.76562 31.193 8.85417 30.7373 7.95898C30.2816 7.0638 29.7526 6.25 29.1504 5.51758C28.5482 4.78516 27.9134 4.20736 27.2461 3.78418C26.5788 3.361 25.8301 3.14128 25 3.125ZM16.04 18.75C15.9098 19.7917 15.8122 20.8252 15.7471 21.8506C15.682 22.876 15.6413 23.9258 15.625 25C15.625 26.0579 15.6576 27.0996 15.7227 28.125C15.7878 29.1504 15.8936 30.1921 16.04 31.25H33.96C34.0902 30.2083 34.1878 29.1748 34.2529 28.1494C34.318 27.124 34.3587 26.0742 34.375 25C34.375 23.9421 34.3424 22.9004 34.2773 21.875C34.2122 20.8496 34.1064 19.8079 33.96 18.75H16.04ZM46.875 25C46.875 22.8353 46.5739 20.752 45.9717 18.75H37.1094C37.2396 19.7917 37.3372 20.8252 37.4023 21.8506C37.4674 22.876 37.5 23.9258 37.5 25C37.5 26.0579 37.4674 27.0996 37.4023 28.125C37.3372 29.1504 37.2396 30.1921 37.1094 31.25H45.9717C46.5739 29.248 46.875 27.1647 46.875 25ZM25 46.875C25.7975 46.875 26.5381 46.6553 27.2217 46.2158C27.9053 45.7764 28.5482 45.1986 29.1504 44.4824C29.7526 43.7663 30.2734 42.9606 30.7129 42.0654C31.1523 41.1702 31.5674 40.2507 31.958 39.3066C32.3486 38.3626 32.6497 37.4674 32.8613 36.6211C33.0729 35.7747 33.2601 35.026 33.4229 34.375H16.5771C16.7074 35.0098 16.8945 35.7585 17.1387 36.6211C17.3828 37.4837 17.6839 38.3789 18.042 39.3066C18.4001 40.2344 18.807 41.1458 19.2627 42.041C19.7184 42.9362 20.2474 43.75 20.8496 44.4824C21.4518 45.2148 22.0866 45.7926 22.7539 46.2158C23.4212 46.639 24.1699 46.8587 25 46.875ZM32.1533 45.6787C33.5205 45.2067 34.8307 44.5964 36.084 43.8477C37.3372 43.099 38.501 42.2445 39.5752 41.2842C40.6494 40.3239 41.626 39.266 42.5049 38.1104C43.3838 36.9548 44.1325 35.7096 44.751 34.375H36.6211C36.4258 35.3516 36.1979 36.3363 35.9375 37.3291C35.6771 38.3219 35.3678 39.2985 35.0098 40.2588C34.6517 41.2191 34.2285 42.1631 33.7402 43.0908C33.252 44.0186 32.723 44.8812 32.1533 45.6787ZM44.751 15.625C44.1325 14.3066 43.3838 13.0697 42.5049 11.9141C41.626 10.7585 40.6494 9.69238 39.5752 8.71582C38.501 7.73926 37.3372 6.88477 36.084 6.15234C34.8307 5.41992 33.5205 4.80957 32.1533 4.32129C32.7393 5.13509 33.2682 5.99772 33.7402 6.90918C34.2122 7.82064 34.6273 8.75651 34.9854 9.7168C35.3434 10.6771 35.6608 11.6618 35.9375 12.6709C36.2142 13.68 36.4421 14.6647 36.6211 15.625H44.751ZM17.8467 4.32129C16.4795 4.79329 15.1693 5.40365 13.916 6.15234C12.6628 6.90104 11.499 7.75553 10.4248 8.71582C9.35059 9.67611 8.37402 10.734 7.49512 11.8896C6.61621 13.0452 5.86751 14.2904 5.24902 15.625H13.3789C13.5742 14.6484 13.8021 13.6637 14.0625 12.6709C14.3229 11.6781 14.6322 10.7015 14.9902 9.74121C15.3483 8.78092 15.7715 7.83691 16.2598 6.90918C16.748 5.98145 17.277 5.11882 17.8467 4.32129Z" fill="white"/>
</svg>
