<svg xmlns="http://www.w3.org/2000/svg" width="36" height="36" fill="none" viewBox="0 0 36 36"><g clip-path="url(#clip0)"><path fill="#fff" d="M35.5904 10.6938C35.5073 8.80888 35.2025 7.51303 34.7659 6.39015C34.3154 5.19825 33.6224 4.13114 32.7145 3.24405C31.8274 2.34315 30.7532 1.64312 29.5751 1.19971C28.4458 0.763065 27.1567 0.458254 25.2718 0.375148C23.3728 0.285004 22.77 0.26416 17.9536 0.26416C13.1373 0.26416 12.5344 0.285004 10.6425 0.36811C8.7576 0.451215 7.46175 0.756297 6.33915 1.19267C5.14698 1.64312 4.07987 2.33612 3.19278 3.24405C2.29188 4.13114 1.59212 5.20529 1.14844 6.38339C0.711795 7.51303 0.406984 8.80184 0.323878 10.6867C0.233735 12.5857 0.212891 13.1886 0.212891 18.0049C0.212891 22.8212 0.233735 23.4241 0.31684 25.316C0.399946 27.2009 0.705027 28.4968 1.14167 29.6197C1.59212 30.8116 2.29188 31.8787 3.19278 32.7658C4.07987 33.6667 5.15402 34.3667 6.33211 34.8101C7.46175 35.2468 8.75057 35.5516 10.6357 35.6347C12.5274 35.718 13.1305 35.7386 17.9469 35.7386C22.7632 35.7386 23.366 35.718 25.258 35.6347C27.1429 35.5516 28.4387 35.2468 29.5613 34.8101C31.9454 33.8884 33.8303 32.0035 34.7521 29.6197C35.1884 28.49 35.4935 27.2009 35.5766 25.316C35.6597 23.4241 35.6806 22.8212 35.6806 18.0049C35.6806 13.1886 35.6735 12.5857 35.5904 10.6938ZM32.3959 25.1774C32.3195 26.9099 32.0285 27.8455 31.786 28.4692C31.1899 30.0146 29.9633 31.2412 28.4179 31.8373C27.7942 32.0798 26.8519 32.3708 25.1262 32.4469C23.2551 32.5303 22.6939 32.5508 17.9607 32.5508C13.2274 32.5508 12.6592 32.5303 10.7949 32.4469C9.06242 32.3708 8.12687 32.0798 7.50317 31.8373C6.73411 31.553 6.03407 31.1026 5.46587 30.5135C4.87682 29.9383 4.42637 29.2453 4.14213 28.4762C3.89958 27.8525 3.60858 26.9099 3.53251 25.1845C3.44914 23.3134 3.42856 22.7519 3.42856 18.0187C3.42856 13.2855 3.44914 12.7173 3.53251 10.8532C3.60858 9.12073 3.89958 8.18518 4.14213 7.56148C4.42637 6.79215 4.87682 6.09238 5.4729 5.52391C6.04788 4.93486 6.74087 4.48441 7.51021 4.20044C8.13391 3.95789 9.07649 3.66689 10.8019 3.59055C12.673 3.50744 13.2345 3.4866 17.9674 3.4866C22.7077 3.4866 23.2689 3.50744 25.1332 3.59055C26.8657 3.66689 27.8012 3.95789 28.4249 4.20044C29.194 4.48441 29.894 4.93486 30.4622 5.52391C31.0513 6.09915 31.5017 6.79215 31.786 7.56148C32.0285 8.18518 32.3195 9.1275 32.3959 10.8532C32.479 12.7243 32.4998 13.2855 32.4998 18.0187C32.4998 22.7519 32.479 23.3063 32.3959 25.1774Z"/><path fill="#fff" d="M17.9537 8.89185C12.9227 8.89185 8.84082 12.9735 8.84082 18.0048C8.84082 23.036 12.9227 27.1177 17.9537 27.1177C22.985 27.1177 27.0667 23.036 27.0667 18.0048C27.0667 12.9735 22.985 8.89185 17.9537 8.89185ZM17.9537 23.9161C14.6899 23.9161 12.0424 21.2689 12.0424 18.0048C12.0424 14.7406 14.6899 12.0934 17.9537 12.0934C21.2179 12.0934 23.8651 14.7406 23.8651 18.0048C23.8651 21.2689 21.2179 23.9161 17.9537 23.9161V23.9161Z"/><path fill="#fff" d="M29.5547 8.53199C29.5547 9.70684 28.6021 10.6594 27.427 10.6594C26.2522 10.6594 25.2996 9.70684 25.2996 8.53199C25.2996 7.35687 26.2522 6.40454 27.427 6.40454C28.6021 6.40454 29.5547 7.35687 29.5547 8.53199V8.53199Z"/></g><defs><clipPath id="clip0"><rect width="35.475" height="35.475" fill="#fff" transform="translate(0.150635 0.26416)"/></clipPath></defs></svg>