<svg xmlns="http://www.w3.org/2000/svg" width="37" height="36" fill="none" viewBox="0 0 37 36"><g clip-path="url(#clip0)"><path fill="#fff" d="M32.9416 0.26416H3.88499C2.11275 0.26416 0.676025 1.70088 0.676025 3.47312V32.5297C0.676025 34.302 2.11275 35.7387 3.88499 35.7387H32.9415C34.7139 35.7387 36.1506 34.302 36.1506 32.5297V3.47312C36.1506 1.70088 34.7139 0.26416 32.9416 0.26416ZM11.6534 30.8952C11.6534 31.411 11.2353 31.8291 10.7195 31.8291H6.74431C6.22854 31.8291 5.81046 31.411 5.81046 30.8952V14.2314C5.81046 13.7156 6.22854 13.2975 6.74431 13.2975H10.7195C11.2353 13.2975 11.6534 13.7156 11.6534 14.2314V30.8952ZM8.73191 11.7267C6.64625 11.7267 4.95545 10.0359 4.95545 7.95025C4.95545 5.86459 6.64625 4.17379 8.73191 4.17379C10.8176 4.17379 12.5084 5.86459 12.5084 7.95025C12.5084 10.0359 10.8177 11.7267 8.73191 11.7267ZM32.4276 30.9705C32.4276 31.4446 32.0432 31.8291 31.569 31.8291H27.3033C26.8291 31.8291 26.4447 31.4446 26.4447 30.9705V23.1542C26.4447 21.9882 26.7867 18.0446 23.3975 18.0446C20.7686 18.0446 20.2353 20.7438 20.1283 21.9552V30.9705C20.1283 31.4446 19.7439 31.8291 19.2696 31.8291H15.144C14.6698 31.8291 14.2853 31.4446 14.2853 30.9705V14.1562C14.2853 13.682 14.6698 13.2975 15.144 13.2975H19.2696C19.7438 13.2975 20.1283 13.682 20.1283 14.1562V15.61C21.1031 14.1471 22.5518 13.0179 25.6363 13.0179C32.4667 13.0179 32.4276 19.3993 32.4276 22.9055V30.9705Z"/></g><defs><clipPath id="clip0"><rect width="35.475" height="35.475" fill="#fff" transform="translate(0.676025 0.26416)"/></clipPath></defs></svg>