<svg width="540" height="1000" viewBox="0 0 540 1000" fill="none" xmlns="http://www.w3.org/2000/svg">
<g opacity="0.7">
<path d="M761.042 181.064L742.819 162.937L539.999 -40V58.5132L559.699 78.2158L646.088 164.612L564.625 246.673C555.423 255.653 547.17 265.556 539.999 276.227V458.969C545.619 466.889 551.879 474.335 558.714 481.233C565.625 488.074 573.142 494.273 581.173 499.754H762.717C773.382 492.65 783.285 484.463 792.268 475.322L904.464 363.017L923.18 344.3L761.042 181.064ZM797.193 395.428C798.345 396.569 799.169 397.998 799.581 399.566C799.993 401.134 799.977 402.783 799.534 404.343C799.091 405.902 798.238 407.315 797.064 408.432C795.89 409.55 794.438 410.332 792.859 410.698C787.563 411.778 782.06 411.085 777.197 408.728C774.638 407.485 772.307 405.82 770.301 403.802L769.612 404.59L744.986 429.12C736.136 438.442 725.422 445.795 713.542 450.701C701.661 455.606 688.881 457.954 676.033 457.59C663.7 457.897 651.435 455.668 639.998 451.042C628.561 446.416 618.195 439.491 609.543 430.696C600.621 422.037 593.564 411.645 588.804 400.16C584.044 388.674 581.682 376.336 581.863 363.904C581.611 351.034 584.048 338.253 589.018 326.379C593.988 314.504 601.381 303.798 610.725 294.945L635.449 270.218L636.04 269.627C634.027 267.623 632.421 265.248 631.312 262.633C628.981 257.865 628.322 252.452 629.44 247.264C629.806 245.685 630.588 244.233 631.706 243.058C632.823 241.884 634.235 241.031 635.795 240.589C637.354 240.146 639.004 240.13 640.571 240.541C642.139 240.953 643.568 241.778 644.708 242.93L653.771 251.993L693.173 212.588L827.434 346.467L788.032 385.872L797.193 395.428Z" fill="white"/>
<path d="M758.481 818.54L740.554 836.765L537.733 1039.7V941.189L557.434 921.486L643.724 834.992L562.458 753.029C553.222 744.054 544.936 734.151 537.733 723.475V540.634C549.003 524.865 562.818 511.082 578.613 499.85H760.55C771.236 506.964 781.141 515.186 790.101 524.38L902.396 636.586L921.013 655.402L758.481 818.54ZM795.026 604.274C796.178 603.133 797.003 601.704 797.415 600.136C797.826 598.568 797.81 596.919 797.367 595.359C796.925 593.8 796.072 592.388 794.898 591.27C793.724 590.152 792.271 589.37 790.692 589.004C785.366 587.879 779.817 588.573 774.931 590.975C772.428 592.219 770.135 593.848 768.135 595.802L767.347 595.112L742.819 570.779C733.951 561.482 723.233 554.145 711.357 549.241C699.481 544.338 686.71 541.976 673.866 542.309C661.531 541.985 649.261 544.205 637.821 548.832C626.381 553.459 616.018 560.394 607.376 569.203C598.439 577.903 591.388 588.348 586.66 599.889C581.932 611.43 579.628 623.821 579.893 636.291C579.655 649.177 582.117 661.97 587.122 673.847C592.127 685.724 599.563 696.421 608.952 705.25L633.578 729.878L634.169 730.469C632.208 732.516 630.609 734.881 629.441 737.464C627.168 742.248 626.511 747.642 627.569 752.832C627.905 754.431 628.672 755.908 629.787 757.104C630.901 758.299 632.322 759.166 633.894 759.613C635.466 760.059 637.13 760.067 638.706 759.636C640.283 759.205 641.711 758.351 642.837 757.166L651.9 748.103L691.301 787.508L825.464 653.136L786.062 613.731L795.026 604.274Z" fill="white"/>
<path d="M318.957 818.54L337.18 836.765L540 1039.7V941.189L520.299 921.486L433.419 834.598L515.079 753.029C524.284 744.053 532.537 734.149 539.705 723.475V540.634C534.138 532.704 527.874 525.286 520.989 518.469C514.179 511.644 506.797 505.414 498.924 499.85H317.282C306.617 506.991 296.714 515.211 287.731 524.38L174.451 636.586L155.735 655.402L318.957 818.54ZM282.806 604.274C281.654 603.133 280.829 601.704 280.418 600.136C280.006 598.568 280.022 596.919 280.465 595.359C280.907 593.8 281.76 592.388 282.934 591.27C284.108 590.152 285.561 589.37 287.14 589.004C292.434 587.879 297.952 588.573 302.802 590.975C305.336 592.217 307.662 593.846 309.697 595.802L310.387 595.112L334.914 570.779C343.779 561.477 354.496 554.137 366.373 549.233C378.25 544.329 391.023 541.97 403.867 542.309C416.201 542.002 428.466 544.231 439.903 548.857C451.34 553.483 461.705 560.408 470.358 569.203C479.262 577.922 486.286 588.373 490.996 599.911C495.706 611.449 498.002 623.831 497.742 636.291C497.975 649.167 495.52 661.951 490.533 673.824C485.547 685.698 478.138 696.401 468.782 705.25L444.156 729.878L443.466 730.469C445.458 732.491 447.06 734.862 448.194 737.464C450.501 742.237 451.192 747.631 450.164 752.832C449.81 754.431 449.029 755.904 447.904 757.095C446.779 758.285 445.353 759.149 443.777 759.593C442.201 760.038 440.533 760.047 438.952 759.62C437.371 759.192 435.935 758.345 434.798 757.166L426.129 748.103L386.728 787.508L252.368 653.136L291.77 613.731L282.806 604.274Z" fill="white"/>
<path d="M337.671 837.36H337.179H337.671ZM338.459 838.05L337.179 836.769L335.898 838.05H338.459ZM0.491211 499.953L14.6758 514.336L49.2508 549.111L155.734 655.407L74.1724 736.975C50.8116 759.445 34.2832 788.065 26.4963 819.53C24.3391 828.853 22.9879 838.346 22.4576 847.901C22.4576 850.069 22.4576 852.236 22.4576 854.403C22.1566 861.304 22.3542 868.218 23.0487 875.091C25.9013 911.719 42.136 946.015 68.6561 971.437C92.8696 996.464 125.062 1012.25 159.674 1016.06C168.134 1017.12 176.667 1017.49 185.187 1017.15C186.763 1017.15 188.24 1017.15 189.718 1017.15C203.338 1016.64 216.841 1014.42 229.908 1010.55C257.749 1002.13 282.977 986.734 303.195 965.822L384.165 883.957L400.615 867.604L433.417 834.602L386.529 787.513L252.366 653.141L205.084 605.953L98.5029 499.657H0.491211V499.953ZM318.955 818.544L337.179 836.769L335.898 838.05L256.11 918.043L254.632 919.52C246.131 928.141 236.113 935.121 225.081 940.11C223.899 940.701 222.717 941.095 221.535 941.587C209.981 946.159 197.602 948.272 185.187 947.794C177.014 947.892 168.864 946.898 160.955 944.838C144.871 941.172 130.194 932.926 118.696 921.097C105.648 908.325 96.7563 891.914 93.1837 874.007C91.8912 867.519 91.2314 860.92 91.2136 854.305C91.0597 845.045 92.2881 835.815 94.8582 826.918C96.0418 822.809 97.5233 818.793 99.2909 814.899C104.402 803.813 111.553 793.787 120.371 785.345L124.607 781.109L203.41 702.299L318.955 818.544ZM338.656 838.247L337.179 836.769L335.898 838.05L338.656 838.247ZM337.868 837.557H337.376H337.868Z" fill="white"/>
<path d="M292.458 613.928H291.965L293.443 612.45L309.696 596.294L310.386 595.605C363.445 630.969 409.031 676.425 444.548 729.386L443.859 729.977L427.409 746.33L426.128 747.61C408.595 756.043 391.618 765.585 375.3 776.179L263.99 664.859C274.558 648.508 284.067 631.496 292.458 613.928Z" fill="white"/>
<path d="M121.653 802.191C158.141 779.508 191.294 751.856 220.157 720.031L318.662 818.545C285.983 847.754 257.655 881.492 234.539 918.733C226.101 917.113 218.345 912.995 212.277 906.911L133.474 828.1C126.689 821.069 122.517 811.925 121.653 802.191Z" fill="white"/>
<path d="M221.635 941.586C225.87 933.902 230.303 926.316 234.834 918.829C241.884 920.315 249.191 920.044 256.111 918.041L254.634 919.519C246.132 928.14 236.114 935.119 225.082 940.108C223.999 940.699 222.817 941.093 221.635 941.586Z" fill="white"/>
<path d="M99.2925 815.093C104.428 804.021 111.576 793.999 120.372 785.539L124.608 781.401C121.823 788.057 120.805 795.319 121.653 802.483C114.364 807.212 106.877 811.054 99.2925 815.093Z" fill="white"/>
<path d="M124.607 781.105L203.41 702.294L204.1 703.082L204.691 703.575L220.846 719.731C191.982 751.556 158.829 779.208 122.341 801.891C121.326 794.882 122.106 787.731 124.607 781.105Z" fill="#101628"/>
<path d="M252.369 653.14L291.77 613.735H292.361C283.756 631.16 274.084 648.038 263.401 664.272L252.369 653.14Z" fill="#101628"/>
<path d="M374.907 775.788C391.225 765.194 408.203 755.652 425.735 747.219L386.334 786.624L374.907 775.788Z" fill="#101628"/>
<path d="M234.833 918.83C257.949 881.59 286.277 847.851 318.956 818.642L337.179 836.769L335.898 838.049L256.11 918.042C249.19 920.045 241.883 920.316 234.833 918.83Z" fill="#101628"/>
<path d="M318.957 181.064L337.18 162.937L540 -40V58.5132L520.299 78.2158L433.419 165.006L515.079 246.673C524.281 255.653 532.533 265.556 539.705 276.227V458.969C534.079 466.913 527.785 474.362 520.89 481.233C514.161 488.077 506.807 494.278 498.924 499.754H317.282C306.616 492.65 296.713 484.463 287.731 475.322L174.451 363.017L155.735 344.201L318.957 181.064ZM282.806 395.428C281.654 396.569 280.829 397.998 280.418 399.566C280.006 401.134 280.022 402.783 280.465 404.343C280.907 405.902 281.76 407.315 282.934 408.432C284.108 409.55 285.561 410.332 287.14 410.698C292.435 411.778 297.939 411.085 302.802 408.728C305.361 407.485 307.692 405.82 309.697 403.802L310.387 404.59L334.914 429.12C343.779 438.422 354.496 445.762 366.373 450.666C378.25 455.57 391.023 457.929 403.867 457.59C416.201 457.897 428.466 455.668 439.903 451.042C451.34 446.416 461.705 439.491 470.358 430.696C479.297 422.045 486.373 411.658 491.15 400.171C495.927 388.685 498.304 376.343 498.136 363.904C498.375 351.027 495.923 338.241 490.936 326.367C485.949 314.492 478.537 303.79 469.176 294.945L444.451 270.218L443.86 269.627C446.651 266.688 448.705 263.128 449.852 259.24C450.999 255.353 451.208 251.248 450.46 247.264C450.095 245.685 449.312 244.233 448.195 243.058C447.077 241.884 445.665 241.031 444.106 240.589C442.546 240.146 440.897 240.13 439.329 240.541C437.761 240.953 436.332 241.778 435.192 242.93L426.129 251.993L386.728 212.588L252.269 346.467L291.671 385.872L282.806 395.428Z" fill="white"/>
<path d="M337.671 162.346L337.179 162.839L337.671 162.346ZM338.459 161.558L337.179 162.839L335.898 161.558H338.459ZM0.491211 499.655L14.6758 485.371L49.2508 450.497L155.734 344.202L74.1724 262.633C50.7945 240.177 34.2631 211.552 26.4963 180.079C24.359 170.781 22.9755 161.326 22.3591 151.805C22.3591 149.539 22.3591 147.471 22.3591 145.205C22.0594 138.336 22.257 131.455 22.9502 124.616C25.7184 87.9984 41.8443 53.6752 68.2621 28.1712C92.4556 3.13275 124.665 -12.6248 159.28 -16.3568C167.74 -17.4185 176.273 -17.781 184.793 -17.4404H189.324C202.961 -16.8062 216.464 -14.4563 229.514 -10.446C257.331 -2.02528 282.55 13.3314 302.801 34.1805L384.165 115.749L400.615 132.103L433.417 165.006L386.234 212.292L252.268 346.467L205.084 393.458L98.5029 499.951H0.491211V499.655ZM318.955 181.064L337.179 162.937L335.898 161.657L256.11 81.6638L254.632 80.1861C246.139 71.5298 236.121 64.5164 225.081 59.4984L221.633 58.5132C210.064 53.9966 197.697 51.8849 185.285 52.3069C177.115 52.2572 168.972 53.2504 161.053 55.2623C145.077 58.7542 130.421 66.7145 118.795 78.2159C105.749 90.9496 96.8559 107.329 93.2822 125.207C91.969 131.858 91.3092 138.622 91.3121 145.402C91.1785 154.427 92.3733 163.422 94.8582 172.099C95.9372 176.241 97.422 180.267 99.2909 184.118C104.343 195.238 111.502 205.274 120.371 213.672L124.508 217.908L203.311 296.718L318.955 181.064ZM338.656 161.361L337.376 162.642L336.095 161.361H338.656ZM337.868 162.149L337.376 162.642L337.868 162.149Z" fill="white"/>
<path d="M292.458 385.676L291.965 386.267L293.443 387.744L309.696 403.802L310.386 404.59C363.466 369.042 409.022 323.382 444.45 270.218L443.859 269.627L427.409 253.274L426.128 251.993V252.486C408.595 244.053 391.618 234.511 375.3 223.917L263.99 335.237C274.506 351.449 284.013 368.294 292.458 385.676Z" fill="white"/>
<path d="M121.653 197.512C158.185 220.134 191.346 247.793 220.157 279.672L318.662 181.159C285.954 151.94 257.623 118.165 234.539 80.8724C226.109 82.5147 218.359 86.6301 212.277 92.694L133.474 171.505C126.668 178.562 122.495 187.744 121.653 197.512Z" fill="white"/>
<path d="M221.635 58.5131C225.87 66.1971 230.303 73.7826 234.834 81.2696C241.856 79.7824 249.14 80.0873 256.013 82.1562L254.535 80.6785C246.042 72.0223 236.024 65.0088 224.984 59.9908L221.635 58.5131Z" fill="white"/>
<path d="M99.2925 184.511C104.404 195.598 111.555 205.623 120.372 214.065L124.608 218.301C121.832 211.644 120.814 204.384 121.653 197.22C114.364 192.984 106.877 188.649 99.2925 184.511Z" fill="white"/>
<path d="M124.61 218.599L203.413 297.41L204.103 296.72L204.694 296.129L220.75 280.071C191.938 248.192 158.777 220.533 122.246 197.911C121.288 204.896 122.101 212.01 124.61 218.599Z" fill="#101628"/>
<path d="M252.369 346.47L291.77 385.876H292.263C283.75 368.452 274.109 351.604 263.401 335.437L252.369 346.47Z" fill="#101628"/>
<path d="M374.907 223.816C391.203 234.447 408.183 243.991 425.735 252.385L386.334 212.98L374.907 223.816Z" fill="#101628"/>
<path d="M234.833 80.779C257.917 118.072 286.248 151.847 318.956 181.065L337.179 162.939L335.898 161.658L256.11 81.6656C249.206 79.58 241.887 79.275 234.833 80.779Z" fill="#101628"/>
<path d="M540 -40L0 500.049L540 1040L1080 500.049L540 -40ZM104.217 500.049L540 64.424L975.192 500.049L540 935.281L104.217 500.049Z" fill="#F3A71D"/>
<path d="M436.716 832.302L205.051 600.615L152.881 652.789L384.546 884.477L436.716 832.302Z" fill="white"/>
<path d="M385.083 114.878L156.482 343.5L208.652 395.675L437.253 167.053L385.083 114.878Z" fill="white"/>
<path d="M337.338 162.679L202.978 297.052L255.148 349.226L389.508 214.853L337.338 162.679Z" fill="#101628"/>
<path d="M388.985 784.542L254.625 650.169L202.454 702.344L336.815 836.717L388.985 784.542Z" fill="#101628"/>
<path d="M572.802 276.62H506.903V457.687H572.802V276.62Z" fill="white"/>
<path d="M318.956 466.653V532.558H500.006V466.653H318.956Z" fill="white"/>
<path d="M572.802 542.016H506.903V723.083H572.802V542.016Z" fill="white"/>
</g>
</svg>
