<svg width="150" height="150" viewBox="0 0 150 150" fill="none" xmlns="http://www.w3.org/2000/svg">
<g opacity="0.7">
<path d="M105.7 119.297L103.169 121.814L74.9998 150V136.318L77.736 133.581L89.7343 121.582L78.42 110.184C77.142 108.937 75.9959 107.562 74.9998 106.08V80.6987C75.7804 79.5988 76.6498 78.5646 77.5992 77.6065C78.5589 76.6564 79.603 75.7954 80.7185 75.0342V75.0342H105.933C107.414 76.0208 108.79 77.158 110.037 78.4274L125.62 94.0254L128.219 96.625L105.7 119.297ZM110.721 89.5239C110.881 89.3654 110.996 89.167 111.053 88.9492C111.11 88.7314 111.108 88.5023 111.046 88.2857C110.985 88.0691 110.866 87.873 110.703 87.7177C110.54 87.5625 110.339 87.4538 110.119 87.4031C109.384 87.2531 108.619 87.3493 107.944 87.6767C107.589 87.8493 107.265 88.0806 106.986 88.3609L106.89 88.2514L103.47 84.8445C102.241 83.5497 100.753 82.5284 99.103 81.8471C97.4529 81.1658 95.6779 80.8398 93.8934 80.8903C92.1805 80.8477 90.477 81.1572 88.8885 81.7997C87.3 82.4422 85.8604 83.404 84.6586 84.6256C83.4195 85.8282 82.4393 87.2715 81.7782 88.8667C81.1171 90.462 80.7891 92.1756 80.8142 93.9022C80.7793 95.6897 81.1178 97.4649 81.808 99.1141C82.4983 100.763 83.5251 102.25 84.8228 103.48L88.2568 106.914L88.3389 106.996C88.0592 107.275 87.8362 107.604 87.6822 107.968C87.3585 108.63 87.2669 109.382 87.4222 110.102C87.473 110.322 87.5816 110.523 87.7369 110.686C87.8921 110.849 88.0882 110.968 88.3048 111.029C88.5214 111.091 88.7505 111.093 88.9682 111.036C89.186 110.979 89.3844 110.864 89.5428 110.704L90.8015 109.445L96.2739 114.918L114.921 96.324L109.449 90.851L110.721 89.5239Z" fill="white"/>
<path d="M103.101 121.896V121.828V121.896ZM102.992 122.006L103.169 121.828L103.347 122.006H102.992ZM149.932 75.048L147.961 77.0319L143.118 81.8755L128.37 96.6388L139.698 107.982C142.968 111.088 145.288 115.06 146.388 119.434C146.687 120.724 146.874 122.038 146.949 123.361C146.949 123.675 146.949 123.963 146.949 124.277C146.991 125.231 146.963 126.187 146.867 127.137C146.472 132.228 144.217 136.996 140.533 140.532C137.169 144.012 132.69 146.201 127.878 146.716C126.703 146.864 125.517 146.914 124.334 146.867H123.705C121.811 146.779 119.935 146.452 118.123 145.895C114.261 144.73 110.758 142.602 107.944 139.711L96.6299 128.368L94.3998 126.097L89.8167 121.527L96.3699 114.96L114.922 96.3241L121.488 89.7566L136.278 75.0069H149.959L149.932 75.048ZM105.7 119.297L103.169 121.814L103.347 121.992L114.402 133.048L114.607 133.253C115.786 134.455 117.178 135.429 118.711 136.126L119.19 136.331C120.797 136.959 122.515 137.252 124.238 137.193C125.373 137.2 126.504 137.062 127.604 136.783C129.834 136.299 131.88 135.188 133.501 133.581C135.312 131.813 136.548 129.538 137.044 127.055C137.226 126.131 137.318 125.192 137.318 124.25C137.336 122.996 137.17 121.747 136.825 120.542C136.669 119.969 136.463 119.41 136.209 118.873C135.503 117.331 134.509 115.938 133.282 114.768L132.693 114.18L121.748 103.234L105.7 119.297ZM102.964 122.033L103.142 121.855L103.32 122.033H102.964ZM103.074 121.924V121.855V121.924Z" fill="white"/>
<path d="M109.449 90.8783V90.7962L109.244 90.5909L106.987 88.3607L106.891 88.2512C99.5155 93.1848 93.1876 99.5272 88.2708 106.914L88.3528 106.996L90.6376 109.267L90.8154 109.445V109.377C93.2506 110.548 95.6085 111.873 97.8749 113.345L113.335 97.8836C111.892 95.6332 110.595 93.2933 109.449 90.8783V90.8783Z" fill="white"/>
<path d="M133.104 117.012C128.03 113.87 123.424 110.029 119.423 105.601L105.741 119.283C110.267 123.352 114.188 128.047 117.384 133.226C118.555 132.998 119.631 132.426 120.476 131.584L131.421 120.638C132.384 119.66 132.979 118.379 133.104 117.012Z" fill="white"/>
<path d="M119.217 136.318C118.629 135.25 118.013 134.197 117.384 133.157C116.409 133.364 115.397 133.321 114.443 133.034L114.648 133.239C115.827 134.441 117.219 135.415 118.752 136.112L119.217 136.318Z" fill="white"/>
<path d="M136.21 118.818C135.5 117.278 134.507 115.886 133.282 114.713L132.694 114.125C133.079 115.049 133.221 116.058 133.104 117.053C134.075 117.641 135.156 118.243 136.21 118.818Z" fill="white"/>
<path d="M132.707 114.083L121.762 103.137V103.288L121.68 103.37L119.45 105.6C123.452 110.028 128.057 113.869 133.131 117.011C133.243 116.015 133.097 115.007 132.707 114.083Z" fill="#101628"/>
<path d="M114.921 96.3235L109.449 90.8506C110.631 93.2705 111.97 95.6106 113.458 97.856L114.921 96.3235Z" fill="#101628"/>
<path d="M97.9296 113.359C95.6663 111.882 93.308 110.557 90.8701 109.391V109.391L96.3426 114.864L97.9296 113.359Z" fill="#101628"/>
<path d="M117.384 133.226C114.174 128.049 110.24 123.359 105.701 119.297L103.17 121.815L103.348 121.992L114.402 133.048C115.365 133.36 116.391 133.422 117.384 133.226V133.226Z" fill="#101628"/>
<path d="M105.345 30.7582L102.855 28.227L74.6853 0.0412664V13.7237L77.4215 16.4601L89.4062 28.4733L78.1193 39.857C76.8365 41.1035 75.6857 42.479 74.6853 43.9617V69.3562C76.2505 71.5464 78.1693 73.4607 80.363 75.0208V75.0208H105.632C107.116 74.0327 108.492 72.8907 109.736 71.6138L125.333 56.0296L127.919 53.4163L105.345 30.7582ZM110.42 60.5174C110.58 60.6759 110.695 60.8743 110.752 61.0921C110.809 61.3098 110.807 61.539 110.746 61.7556C110.684 61.9722 110.566 62.1683 110.403 62.3235C110.24 62.4788 110.038 62.5874 109.818 62.6382C109.079 62.7944 108.308 62.6981 107.629 62.3645C107.282 62.1917 106.963 61.9655 106.685 61.6941L106.576 61.7899L103.169 65.1694C101.938 66.4608 100.449 67.4798 98.7997 68.1608C97.1503 68.8419 95.3765 69.1698 93.5926 69.1236C91.8794 69.1687 90.1752 68.8603 88.5863 68.2176C86.9975 67.575 85.5581 66.6119 84.3579 65.3883C83.1167 64.1801 82.1373 62.7294 81.4806 61.1264C80.824 59.5235 80.5041 57.8025 80.5408 56.0706C80.5077 54.2809 80.8497 52.504 81.5448 50.8544C82.2399 49.2049 83.2727 47.7192 84.5768 46.493L87.997 43.0724L88.0791 42.9903C87.8068 42.706 87.5847 42.3775 87.4224 42.0188C87.1067 41.3543 87.0155 40.6052 87.1625 39.8844C87.2092 39.6622 87.3157 39.4571 87.4705 39.2911C87.6253 39.1251 87.8226 39.0046 88.0409 38.9426C88.2593 38.8806 88.4904 38.8795 88.7093 38.9394C88.9283 38.9993 89.1267 39.1179 89.2831 39.2824L90.5417 40.5411L96.0142 35.0682L114.648 53.731L109.175 59.2039L110.42 60.5174Z" fill="white"/>
<path d="M102.786 28.1444H102.855H102.786ZM102.69 28.0486L102.855 28.2128L103.019 28.0349L102.69 28.0486ZM149.63 75.0066L147.647 73.0089L142.817 68.179L128.055 53.4157L139.383 42.0867C142.633 38.9697 144.929 34.9933 146.005 30.6209C146.316 29.3275 146.508 28.0086 146.579 26.6803C146.579 26.3793 146.579 26.0783 146.579 25.7773C146.642 24.8205 146.642 23.8608 146.579 22.904C146.096 17.9709 143.953 13.3479 140.501 9.79114C137.049 6.2344 132.492 3.95454 127.576 3.32449C126.401 3.17734 125.216 3.127 124.033 3.17399C123.814 3.17399 123.609 3.17399 123.404 3.17399C121.507 3.2443 119.628 3.55227 117.808 4.0907C113.943 5.26306 110.44 7.40088 107.629 10.3025L96.315 21.6726L94.0302 23.9439L89.447 28.5275L96.014 35.0676L114.648 53.7304L121.201 60.2843L135.963 75.0476H149.644L149.63 75.0066ZM105.345 30.7577L102.855 28.2264L103.019 28.0486L114.073 16.9932L114.278 16.788C115.459 15.5906 116.85 14.6212 118.383 13.9284L118.861 13.7231C120.471 13.0894 122.195 12.7959 123.924 12.8611C125.059 12.8483 126.19 12.9863 127.289 13.2716C129.522 13.7837 131.559 14.9286 133.158 16.5691C134.996 18.3174 136.269 20.5763 136.811 23.0545C136.986 23.9561 137.073 24.8726 137.071 25.791C137.072 27.0786 136.888 28.3596 136.524 29.5947C136.359 30.1653 136.154 30.7232 135.908 31.2639C135.198 32.8037 134.205 34.1962 132.98 35.3687L132.392 35.957L121.447 46.9029L105.345 30.7577ZM102.608 28.0212L102.772 28.1854L102.937 28.0075L102.608 28.0212ZM102.704 28.117H102.772H102.704Z" fill="white"/>
<path d="M109.066 59.1767H109.148L108.943 59.3819L106.713 61.6943L106.603 61.79C99.2248 56.8569 92.8888 50.5202 87.9561 43.1409L88.0381 43.0588L90.2955 40.7876L90.4734 40.6097C92.91 39.4415 95.2682 38.116 97.5328 36.6418L112.993 52.1029C111.539 54.3777 110.228 56.7402 109.066 59.1767V59.1767Z" fill="white"/>
<path d="M132.803 33.0291C127.73 36.1725 123.124 40.0138 119.122 44.4402L105.44 30.7578C109.983 26.7047 113.918 22.0182 117.124 16.8428C118.298 17.062 119.377 17.6349 120.216 18.4847L131.161 29.4306C132.097 30.4115 132.675 31.6792 132.803 33.0291V33.0291Z" fill="white"/>
<path d="M118.903 13.6687C118.314 14.7359 117.699 15.7894 117.069 16.8293C116.095 16.6257 115.085 16.6633 114.128 16.9387L114.333 16.7335C115.514 15.5361 116.905 14.5667 118.437 13.8739L118.903 13.6687Z" fill="white"/>
<path d="M135.908 31.2371C135.19 32.7721 134.198 34.1631 132.981 35.3418L132.392 35.9165C132.772 34.9902 132.913 33.9835 132.803 32.9885C133.815 32.3317 134.855 31.7981 135.908 31.2371Z" fill="white"/>
<path d="M132.393 35.9577L121.448 46.9036L121.338 46.7941V46.7257L119.026 44.4407C123.029 40.0144 127.634 36.1731 132.707 33.0296C132.848 34.0166 132.74 35.0231 132.393 35.9577V35.9577Z" fill="#101628"/>
<path d="M114.648 53.7307L109.175 59.2036C110.366 56.7837 111.705 54.4395 113.184 52.1846L114.648 53.7307Z" fill="#101628"/>
<path d="M97.6149 36.6962C95.3484 38.1676 92.9905 39.4929 90.5554 40.6641V40.6641L96.0279 35.1911L97.6149 36.6962Z" fill="#101628"/>
<path d="M117.069 16.8292C113.851 22.0073 109.902 26.6939 105.345 30.7441L102.855 28.2266L103.033 28.0487L114.087 16.9934C115.052 16.693 116.077 16.6365 117.069 16.8292V16.8292Z" fill="#101628"/>
<path d="M44.2995 30.7582L46.8305 28.227L75 0.0412664V13.7237L72.2638 16.4601L60.197 28.528L71.5387 39.857C72.8172 41.1037 73.9634 42.4792 74.959 43.9617V69.3562C74.1857 70.4577 73.3158 71.4879 72.3596 72.4348C71.4138 73.3827 70.3885 74.2479 69.295 75.0208V75.0208H44.067C42.5856 74.0289 41.2103 72.8872 39.9626 71.6138L24.2293 56.0296L21.6299 53.4163L44.2995 30.7582ZM39.2786 60.5174C39.1186 60.6759 39.004 60.8743 38.9469 61.0921C38.8897 61.3098 38.8919 61.539 38.9534 61.7556C39.0149 61.9722 39.1333 62.1683 39.2964 62.3235C39.4595 62.4788 39.6612 62.5874 39.8805 62.6382C40.6158 62.7945 41.3822 62.6981 42.0558 62.3645C42.4078 62.1919 42.7309 61.9658 43.0135 61.6941L43.1093 61.7899L46.5159 65.1694C47.7471 66.4614 49.2355 67.4809 50.8851 68.162C52.5346 68.8431 54.3087 69.1707 56.0927 69.1236C57.8056 69.1663 59.5091 68.8567 61.0976 68.2142C62.6861 67.5717 64.1257 66.6099 65.3274 65.3883C66.5642 64.1774 67.5398 62.7259 68.1939 61.1234C68.848 59.5208 69.1669 57.8012 69.1308 56.0706C69.1632 54.2822 68.8222 52.5068 68.1296 50.8576C67.437 49.2085 66.4081 47.7219 65.1085 46.493L61.6883 43.0724L61.5925 42.9903C61.8691 42.7095 62.0917 42.3802 62.2492 42.0188C62.5695 41.3559 62.6656 40.6067 62.5228 39.8844C62.4736 39.6623 62.3651 39.4577 62.2089 39.2923C62.0527 39.1269 61.8546 39.007 61.6356 38.9453C61.4167 38.8835 61.1851 38.8822 60.9656 38.9416C60.746 39.0009 60.5466 39.1187 60.3886 39.2824L59.1846 40.5411L53.7122 35.0682L35.0511 53.731L40.5235 59.2039L39.2786 60.5174Z" fill="white"/>
<path d="M46.8987 28.1444H46.8303H46.8987ZM47.0081 28.0486L46.8303 28.2265L46.6524 28.0486H47.0081ZM0.0681152 75.0066L2.0382 73.0089L6.84028 68.179L21.6296 53.4157L10.3016 42.0867C7.05707 38.966 4.76145 34.991 3.67994 30.6209C3.38033 29.3259 3.19266 28.0075 3.11901 26.6804C3.11901 26.3793 3.11901 26.0783 3.11901 25.7773C3.0772 24.8188 3.10464 23.8586 3.2011 22.904C3.5973 17.8168 5.85212 13.0535 9.53547 9.52263C12.8985 6.04667 17.3697 3.85442 22.1768 3.32451C23.3518 3.17705 24.537 3.12671 25.7203 3.174C25.9392 3.174 26.1444 3.174 26.3496 3.174C28.2413 3.2443 30.1167 3.55229 31.9315 4.09072C35.7984 5.25974 39.3023 7.39804 42.1103 10.3025L53.3562 21.6726L55.6409 23.9439L60.1967 28.5275L53.6845 35.0677L35.0508 53.7304L28.4838 60.2843L13.6809 75.0476H0.0681152V75.0066ZM44.2993 30.7577L46.8303 28.2265L46.6524 28.0486L35.5707 16.9385L35.3655 16.7332C34.1847 15.5359 32.7933 14.5665 31.2611 13.8736C31.0969 13.7915 30.9328 13.7368 30.7686 13.6684C29.164 13.0335 27.4446 12.7399 25.7203 12.8064C24.5851 12.7928 23.4533 12.9308 22.3547 13.2169C20.1209 13.7261 18.0824 14.8714 16.4855 16.5143C14.6732 18.2881 13.4383 20.5675 12.9421 23.0545C12.7626 23.9557 12.6709 24.8721 12.6684 25.791C12.6471 27.077 12.8177 28.359 13.1746 29.5947C13.339 30.1653 13.5448 30.7232 13.7903 31.264C14.5002 32.8037 15.4934 34.1962 16.7181 35.3687L17.3064 35.957L28.2513 46.9029L44.2993 30.7577ZM47.0355 28.0212L46.8303 28.2265L46.6524 28.0486L47.0355 28.0212ZM46.926 28.117H46.8576H46.926Z" fill="white"/>
<path d="M40.6191 59.1765H40.5507L40.7559 59.3817L43.0133 61.6257L43.1091 61.7214C50.4785 56.8097 56.8099 50.4963 61.7428 43.1408L61.647 43.0587L59.3623 40.7874L59.1844 40.6095C56.7493 39.4383 54.3914 38.113 52.125 36.6416L36.6653 52.1027C38.133 54.3737 39.4537 56.7365 40.6191 59.1765V59.1765Z" fill="white"/>
<path d="M16.8962 33.0291C21.9639 36.1795 26.5685 40.0201 30.5774 44.4402L44.2585 30.7578C39.7198 26.701 35.7853 22.0151 32.5748 16.8428C31.4029 17.0677 30.3256 17.6398 29.4829 18.4847L18.538 29.4306C17.5956 30.4072 17.0162 31.6772 16.8962 33.0291V33.0291Z" fill="white"/>
<path d="M30.7827 13.6687C31.371 14.7359 31.9867 15.7894 32.616 16.8293C33.5951 16.6229 34.61 16.6605 35.5711 16.9387L35.3659 16.7335C34.1851 15.5361 32.7938 14.5667 31.2616 13.8739C31.1111 13.7918 30.9469 13.7371 30.7827 13.6687Z" fill="white"/>
<path d="M13.7908 31.2371C14.504 32.7749 15.4968 34.1668 16.7185 35.3418L17.3068 35.9165C16.92 34.9922 16.7787 33.9835 16.8964 32.9885C15.884 32.3317 14.8442 31.7981 13.7908 31.2371Z" fill="white"/>
<path d="M17.3066 35.9576L28.2515 46.9036L28.3472 46.7941L28.4293 46.7257L30.673 44.4818C26.6642 40.0616 22.0596 36.2211 16.9919 33.0707C16.851 34.0441 16.9592 35.0374 17.3066 35.9576Z" fill="#101628"/>
<path d="M35.051 53.7307L40.5235 59.2036H40.6056C39.4103 56.7835 38.067 54.4394 36.5833 52.1846L35.051 53.7307Z" fill="#101628"/>
<path d="M52.0703 36.6962C54.3367 38.1676 56.6947 39.4929 59.1298 40.6641V40.6641L53.6573 35.1911L52.0703 36.6962Z" fill="#101628"/>
<path d="M32.6157 16.8291C35.8262 22.0014 39.7607 26.6873 44.2994 30.7441L46.8304 28.2266L46.6526 28.0487L35.5708 16.9386C34.6097 16.6603 33.5948 16.6228 32.6157 16.8291Z" fill="#101628"/>
<path d="M44.2995 119.297L46.8305 121.814L75 150V136.318L72.2638 133.581L60.197 121.527L71.5387 110.184C72.8167 108.937 73.9629 107.562 74.959 106.08V80.6987C74.1776 79.5954 73.3034 78.5609 72.3459 77.6065C71.4112 76.656 70.3898 75.7948 69.295 75.0342V75.0342H44.067C42.5856 76.0208 41.2102 77.158 39.9626 78.4274L24.2293 94.0254L21.6299 96.6387L44.2995 119.297ZM39.2786 89.5239C39.1186 89.3654 39.004 89.167 38.9469 88.9492C38.8897 88.7314 38.8919 88.5023 38.9534 88.2857C39.0149 88.0691 39.1333 87.873 39.2964 87.7177C39.4595 87.5625 39.6612 87.4538 39.8805 87.4031C40.616 87.2531 41.3804 87.3493 42.0558 87.6767C42.4112 87.8493 42.735 88.0806 43.0135 88.3609L43.1093 88.2514L46.5159 84.8445C47.7471 83.5525 49.2355 82.533 50.8851 81.8519C52.5346 81.1708 54.3087 80.8432 56.0927 80.8903C57.8056 80.8477 59.5091 81.1572 61.0976 81.7997C62.6861 82.4422 64.1257 83.404 65.3274 84.6256C66.569 85.827 67.5518 87.2698 68.2152 88.8651C68.8787 90.4604 69.2089 92.1746 69.1855 93.9022C69.2187 95.6907 68.8781 97.4665 68.1855 99.1157C67.4929 100.765 66.4635 102.251 65.1633 103.48L61.7293 106.914L61.6472 106.996C62.0348 107.404 62.3201 107.899 62.4794 108.439C62.6388 108.979 62.6677 109.549 62.5639 110.102C62.5131 110.322 62.4045 110.523 62.2492 110.686C62.094 110.849 61.8979 110.968 61.6813 111.029C61.4647 111.091 61.2356 111.093 61.0179 111.036C60.8001 110.979 60.6017 110.864 60.4433 110.704L59.1846 109.445L53.7122 114.918L35.0374 96.324L40.5099 90.851L39.2786 89.5239Z" fill="white"/>
<path d="M46.8987 121.896L46.8303 121.828L46.8987 121.896ZM47.0081 122.006L46.8303 121.828L46.6524 122.006H47.0081ZM0.0681152 75.048L2.0382 77.0319L6.84028 81.8755L21.6296 96.6388L10.3016 107.968C7.05469 111.087 4.75865 115.062 3.67994 119.434C3.38309 120.725 3.19093 122.038 3.10533 123.361C3.10533 123.675 3.10533 123.963 3.10533 124.277C3.0637 125.231 3.09114 126.187 3.18742 127.137C3.5719 132.223 5.8116 136.99 9.48074 140.532C12.8409 144.009 17.3145 146.198 22.1221 146.716C23.2971 146.864 24.4823 146.914 25.6655 146.867H26.2949C28.1889 146.779 30.0643 146.452 31.8768 145.895C35.7403 144.726 39.243 142.593 42.0555 139.697L53.3562 128.368L55.6409 126.097L60.1967 121.527L53.6435 114.96L35.0371 96.3241L28.4838 89.7976L13.6809 75.0069H0.0681152V75.048ZM44.2993 119.297L46.8303 121.814L46.6524 121.992L35.5707 133.102L35.3655 133.308C34.1859 134.51 32.7944 135.484 31.2611 136.181L30.7823 136.318C29.1755 136.945 27.4578 137.238 25.7339 137.18C24.5992 137.187 23.4682 137.049 22.3684 136.769C20.1494 136.284 18.114 135.179 16.4992 133.581C14.6872 131.813 13.4521 129.538 12.9558 127.055C12.7734 126.131 12.6817 125.192 12.6821 124.25C12.6636 122.996 12.8295 121.747 13.1746 120.542C13.3245 119.967 13.5307 119.408 13.7903 118.873C14.492 117.328 15.4863 115.934 16.7181 114.768L17.2927 114.18L28.2376 103.234L44.2993 119.297ZM47.0355 122.033L46.8576 121.855L46.6798 122.033H47.0355ZM46.926 121.924L46.8576 121.855L46.926 121.924Z" fill="white"/>
<path d="M40.6191 90.8783L40.5507 90.7962L40.7559 90.5909L43.0133 88.3607L43.1091 88.2512C50.4814 93.1884 56.8086 99.5302 61.7291 106.914L61.647 106.996L59.3623 109.267L59.1844 109.445V109.377C56.7493 110.548 54.3914 111.873 52.125 113.345L36.6653 97.8836C38.1258 95.6319 39.4463 93.2924 40.6191 90.8783V90.8783Z" fill="white"/>
<path d="M16.8962 117.012C21.9701 113.87 26.5757 110.029 30.5774 105.601L44.2585 119.283C39.7158 123.342 35.7809 128.033 32.5748 133.212C31.404 132.984 30.3276 132.412 29.4829 131.57L18.538 120.624C17.5928 119.644 17.0132 118.369 16.8962 117.012Z" fill="white"/>
<path d="M30.7827 136.318C31.371 135.25 31.9867 134.197 32.616 133.157C33.5913 133.364 34.6028 133.321 35.5574 133.034L35.3522 133.239C34.1726 134.441 32.7812 135.415 31.2479 136.112L30.7827 136.318Z" fill="white"/>
<path d="M13.7908 118.818C14.5007 117.278 15.4939 115.886 16.7185 114.713L17.3068 114.125C16.9212 115.049 16.7799 116.058 16.8964 117.053C15.884 117.641 14.8442 118.243 13.7908 118.818Z" fill="white"/>
<path d="M17.3069 114.083L28.2518 103.138L28.3475 103.233L28.4296 103.315L30.6597 105.546C26.658 109.973 22.0523 113.815 16.9785 116.957C16.8455 115.987 16.9584 114.999 17.3069 114.083V114.083Z" fill="#101628"/>
<path d="M35.051 96.3235L40.5235 90.8506H40.5919C39.4096 93.2705 38.0705 95.6106 36.5833 97.856L35.051 96.3235Z" fill="#101628"/>
<path d="M52.0703 113.359C54.3336 111.882 56.6919 110.557 59.1298 109.391V109.391L53.6573 114.864L52.0703 113.359Z" fill="#101628"/>
<path d="M32.6157 133.225C35.8218 128.046 39.7567 123.355 44.2994 119.296L46.8304 121.814L46.6526 121.992L35.5708 133.102C34.612 133.392 33.5954 133.434 32.6157 133.225V133.225Z" fill="#101628"/>
<path d="M75 150L0 74.9932L75 -3.55432e-06L150 74.9932L75 150ZM14.4746 74.9932L75 135.497L135.443 74.9932L75 14.5444L14.4746 74.9932Z" fill="#F3A71D"/>
<path d="M60.655 28.8471L28.4792 61.0259L21.2334 53.7794L53.4092 21.6006L60.655 28.8471Z" fill="white"/>
<path d="M53.4838 128.489L21.7336 96.7361L28.9795 89.4896L60.7297 121.243L53.4838 128.489Z" fill="white"/>
<path d="M128.269 96.7246L96.6152 128.381L89.3694 121.134L121.023 89.478L128.269 96.7246Z" fill="white"/>
<path d="M120.996 60.4829L89.3423 28.8267L96.5881 21.5802L128.242 53.2364L120.996 60.4829Z" fill="white"/>
<path d="M46.8526 121.85L28.1914 103.187L35.4373 95.9408L54.0985 114.604L46.8526 121.85Z" fill="#101628"/>
<path d="M114.536 54.0259L95.8748 35.363L103.121 28.1165L121.782 46.7794L114.536 54.0259Z" fill="#101628"/>
<path d="M121.822 103.176L103.161 121.839L95.9153 114.592L114.576 95.9295L121.822 103.176Z" fill="#101628"/>
<path d="M54.0257 35.4802L35.3645 54.1431L28.1187 46.8966L46.7799 28.2336L54.0257 35.4802Z" fill="#101628"/>
<path d="M79.5558 106.025H70.4031V80.8767H79.5558V106.025Z" fill="white"/>
<path d="M80.8831 79.6182V70.4646H106.029V79.6182H80.8831Z" fill="white"/>
<path d="M44.2993 79.6315V70.478H69.4453V79.6315H44.2993Z" fill="white"/>
<path d="M79.5558 69.1643H70.4031V44.0161H79.5558V69.1643Z" fill="white"/>
</g>
</svg>
