<svg xmlns="http://www.w3.org/2000/svg" width="36" height="62" fill="none" viewBox="0 0 36 62"><path fill="#fff" d="M7.11546 60.8117C6.34051 61.5806 5.35421 62 4.19178 62C1.86693 62 0 60.1826 0 57.876C0 56.7227 0.493153 55.6742 1.30333 54.8703L25.9609 30.9651L1.30333 7.12965C0.493153 6.32582 0 5.24239 0 4.12401C0 1.81736 1.86693 0 4.19178 0C5.35421 0 6.34051 0.419391 7.11546 1.18828L34.5205 27.7497C35.5068 28.6584 35.9648 29.7768 36 31C36 32.2232 35.5068 33.2717 34.5205 34.2153L7.11546 60.8117Z"/></svg>