<svg width="46" height="44" viewBox="0 0 46 44" fill="none" xmlns="http://www.w3.org/2000/svg">
<g filter="url(#filter0_d)">
<path d="M4.25 7.02083C4.25 3.2814 7.2814 0.25 11.0208 0.25H34.9792C38.7185 0.25 41.75 3.2814 41.75 7.02083V30.9792C41.75 34.7185 38.7185 37.75 34.9792 37.75H11.0208C7.2814 37.75 4.25 34.7185 4.25 30.9792V7.02083ZM24.5625 10.1458C24.5625 9.2829 23.8629 8.58333 23 8.58333C22.1371 8.58333 21.4375 9.2829 21.4375 10.1458V17.4375H14.1458C13.2829 17.4375 12.5833 18.1371 12.5833 19C12.5833 19.8629 13.2829 20.5625 14.1458 20.5625H21.4375V27.8542C21.4375 28.7171 22.1371 29.4167 23 29.4167C23.8629 29.4167 24.5625 28.7171 24.5625 27.8542V20.5625H31.8542C32.7171 20.5625 33.4167 19.8629 33.4167 19C33.4167 18.1371 32.7171 17.4375 31.8542 17.4375H24.5625V10.1458Z" fill="#F3A71D"/>
<path d="M4.75 7.02083C4.75 3.55754 7.55754 0.75 11.0208 0.75H34.9792C38.4424 0.75 41.25 3.55754 41.25 7.02083V30.9792C41.25 34.4424 38.4424 37.25 34.9792 37.25H11.0208C7.55754 37.25 4.75 34.4424 4.75 30.9792V7.02083ZM25.0625 10.1458C25.0625 9.00675 24.1391 8.08333 23 8.08333C21.8609 8.08333 20.9375 9.00675 20.9375 10.1458V16.9375H14.1458C13.0067 16.9375 12.0833 17.8609 12.0833 19C12.0833 20.1391 13.0067 21.0625 14.1458 21.0625H20.9375V27.8542C20.9375 28.9932 21.8609 29.9167 23 29.9167C24.1391 29.9167 25.0625 28.9932 25.0625 27.8542V21.0625H31.8542C32.9932 21.0625 33.9167 20.1391 33.9167 19C33.9167 17.8609 32.9932 16.9375 31.8542 16.9375H25.0625V10.1458Z" stroke="black"/>
<path d="M4.75 7.02083C4.75 3.55754 7.55754 0.75 11.0208 0.75H34.9792C38.4424 0.75 41.25 3.55754 41.25 7.02083V30.9792C41.25 34.4424 38.4424 37.25 34.9792 37.25H11.0208C7.55754 37.25 4.75 34.4424 4.75 30.9792V7.02083ZM25.0625 10.1458C25.0625 9.00675 24.1391 8.08333 23 8.08333C21.8609 8.08333 20.9375 9.00675 20.9375 10.1458V16.9375H14.1458C13.0067 16.9375 12.0833 17.8609 12.0833 19C12.0833 20.1391 13.0067 21.0625 14.1458 21.0625H20.9375V27.8542C20.9375 28.9932 21.8609 29.9167 23 29.9167C24.1391 29.9167 25.0625 28.9932 25.0625 27.8542V21.0625H31.8542C32.9932 21.0625 33.9167 20.1391 33.9167 19C33.9167 17.8609 32.9932 16.9375 31.8542 16.9375H25.0625V10.1458Z" stroke="url(#paint0_linear)"/>
<path d="M4.75 7.02083C4.75 3.55754 7.55754 0.75 11.0208 0.75H34.9792C38.4424 0.75 41.25 3.55754 41.25 7.02083V30.9792C41.25 34.4424 38.4424 37.25 34.9792 37.25H11.0208C7.55754 37.25 4.75 34.4424 4.75 30.9792V7.02083ZM25.0625 10.1458C25.0625 9.00675 24.1391 8.08333 23 8.08333C21.8609 8.08333 20.9375 9.00675 20.9375 10.1458V16.9375H14.1458C13.0067 16.9375 12.0833 17.8609 12.0833 19C12.0833 20.1391 13.0067 21.0625 14.1458 21.0625H20.9375V27.8542C20.9375 28.9932 21.8609 29.9167 23 29.9167C24.1391 29.9167 25.0625 28.9932 25.0625 27.8542V21.0625H31.8542C32.9932 21.0625 33.9167 20.1391 33.9167 19C33.9167 17.8609 32.9932 16.9375 31.8542 16.9375H25.0625V10.1458Z" stroke="url(#paint1_linear)"/>
</g>
<defs>
<filter id="filter0_d" x="0.25" y="0.25" width="45.5" height="45.5" filterUnits="userSpaceOnUse" color-interpolation-filters="sRGB">
<feFlood flood-opacity="0" result="BackgroundImageFix"/>
<feColorMatrix in="SourceAlpha" type="matrix" values="0 0 0 0 0 0 0 0 0 0 0 0 0 0 0 0 0 0 127 0"/>
<feOffset dy="4"/>
<feGaussianBlur stdDeviation="2"/>
<feColorMatrix type="matrix" values="0 0 0 0 0 0 0 0 0 0 0 0 0 0 0 0 0 0 0.25 0"/>
<feBlend mode="normal" in2="BackgroundImageFix" result="effect1_dropShadow"/>
<feBlend mode="normal" in="SourceGraphic" in2="effect1_dropShadow" result="shape"/>
</filter>
<linearGradient id="paint0_linear" x1="23" y1="0.25" x2="23" y2="37.75" gradientUnits="userSpaceOnUse">
<stop stop-color="white"/>
<stop offset="1" stop-color="white" stop-opacity="0"/>
</linearGradient>
<linearGradient id="paint1_linear" x1="23" y1="0.25" x2="23" y2="37.75" gradientUnits="userSpaceOnUse">
<stop stop-color="white"/>
<stop offset="1" stop-color="white" stop-opacity="0"/>
</linearGradient>
</defs>
</svg>
