<svg width="12" height="21" viewBox="0 0 12 21" fill="none" xmlns="http://www.w3.org/2000/svg">
<path d="M2.39062 20.3906C2.13281 20.6484 1.80469 20.7891 1.41797 20.7891C0.644531 20.7891 0.0234375 20.1797 0.0234375 19.4062C0.0234375 19.0195 0.1875 18.668 0.457031 18.3984L8.66016 10.3828L0.457031 2.39062C0.1875 2.12109 0.0234375 1.75781 0.0234375 1.38281C0.0234375 0.609375 0.644531 0 1.41797 0C1.80469 0 2.13281 0.140625 2.39062 0.398438L11.5078 9.30469C11.8359 9.60938 11.9883 9.98438 12 10.3945C12 10.8047 11.8359 11.1562 11.5078 11.4727L2.39062 20.3906Z" fill="#F3A71D"/>
</svg>
