<svg xmlns="http://www.w3.org/2000/svg" viewBox="0 0 165.1 85.76"><g id="Layer_2" data-name="Layer 2"><g id="Layer_7" data-name="Layer 7"><g id="hatch"><rect x="76.59" y="7.11" width="49.07" height="21.78" style="fill:#f3a71d"/><polygon points="72.39 7.11 46.09 28.89 72.39 28.89 72.39 7.11" style="fill:#f3a71d"/><polygon points="129.67 7.11 136.44 8.03 140.68 11.46 144.46 18 146.53 28.89 129.67 28.89 129.67 7.11" style="fill:#f3a71d"/><path d="M155.24,44l-1.84-15.6-2.29-12.84-3-7.11L139,1.83,122.22,0H70.63l-30,24.08-17.66,2.3-10.32,5L8.26,42,4,49.3,0,58v8l2.76,6.65H9a18.11,18.11,0,0,0,34.79,0h80.32A18.11,18.11,0,0,0,159.55,69h5.55V56.64ZM33.67,68.33a7.2,7.2,0,0,1-2,4.36,7.31,7.31,0,0,1-10.63,0,7.2,7.2,0,0,1-2-4.36,5.32,5.32,0,0,1,0-.69,7.34,7.34,0,0,1,14.67,0A5.32,5.32,0,0,1,33.67,68.33Zm115.11,0a7.2,7.2,0,0,1-2,4.36,7.32,7.32,0,0,1-10.64,0,7.2,7.2,0,0,1-2-4.36,5.32,5.32,0,0,1,0-.69,7.34,7.34,0,0,1,14.68,0A5.32,5.32,0,0,1,148.78,68.33Zm11.66-3.06h-1a18.11,18.11,0,0,0-36.07,2.37c0,.23,0,.46,0,.69H44.48c0-.23,0-.46,0-.69a18.12,18.12,0,0,0-36.23,0c0,.23,0,.46,0,.69H5.62L4.25,64.2V57.78l8.92-14.9H19l6.51-12.43L41.28,28.2,71.77,3.67h52.74l12.54,1.07,7.64,5.5,3.36,6.42,4.59,30.73,7.8,9.78Z" style="fill:#f3a71d"/></g></g></g></svg>