<svg xmlns="http://www.w3.org/2000/svg" viewBox="0 0 100.61 100"><g id="Layer_2" data-name="Layer 2"><g id="settings"><path d="M100.61,57.05V43.55H86.36A36.47,36.47,0,0,0,80.1,28.91L90,18.61,80.2,9.28l-9.86,10.3a36.48,36.48,0,0,0-13.29-5.34V0H43.56V14.24A36.66,36.66,0,0,0,30,19.72L20.12,9.5l-9.69,9.4,9.93,10.22a36.43,36.43,0,0,0-6.11,14.43H0v13.5H14.25a36.43,36.43,0,0,0,6.11,14.43L10.43,81.71l9.69,9.39L30,80.88a36.66,36.66,0,0,0,13.52,5.48V100H57.05V86.36A36.48,36.48,0,0,0,70.34,81l9.86,10.3L90,82,80.1,71.69a36.47,36.47,0,0,0,6.26-14.64Zm-27-1.35a23.85,23.85,0,0,1-3.31,7.72,24.09,24.09,0,0,1-7.78,7.45,23.69,23.69,0,0,1-5.47,2.39,23.91,23.91,0,0,1-26.84-10A24,24,0,0,1,27,44.9a23.5,23.5,0,0,1,3.22-7.57A23.91,23.91,0,0,1,44.88,27a24,24,0,0,1,10.85,0A24,24,0,0,1,73.61,55.7Z" style="fill:#f3a71d"/></g></g></svg>