<svg xmlns="http://www.w3.org/2000/svg" viewBox="0 0 232.74 86.9"><g id="Layer_2" data-name="Layer 2"><g id="Layer_7" data-name="Layer 7"><g id="SUV"><path d="M232.74,51.59l-4.35-11.46V17.66L209.36,0H106.63L62.83,23.85,8.72,32.68l-5.5,3.78L0,47.92,1.38,64l6,6.88,13.07,3.21,1.15,0a19.5,19.5,0,0,0,36.9-.67H177.72a19.5,19.5,0,0,0,38.06-6,19.81,19.81,0,0,0-.11-2h10.88ZM47,69.36a7.33,7.33,0,0,1-7.07,5.39,7.16,7.16,0,0,1-3.83-1.09h0a7.3,7.3,0,0,1-3.22-4.3,7,7,0,0,1-.27-2,7.34,7.34,0,0,1,14.67,0A7,7,0,0,1,47,69.36Zm156.5-.47a7.33,7.33,0,0,1-14.15.8h0a7.45,7.45,0,0,1-.36-2.28,7.34,7.34,0,0,1,14.67,0A7.21,7.21,0,0,1,203.47,68.89Zm11.3-7.67a19.49,19.49,0,0,0-37.87,4.14H59.28a19.49,19.49,0,0,0-38.87,2c0,.46,0,.92.06,1.37l-6.94-1.37L6.2,59.16,4.59,49.3l.17-1h8.57L18.4,34.78l46.73-5.89,42.65-25h99.74l15.59,16.51.69,22,3.9,10.15-3.9,8.65Z" style="fill:#f3a71d"/><polygon points="72.35 29.27 108.12 7.94 108.12 29.27 72.35 29.27" style="fill:#f3a71d"/><rect x="114.05" y="7.94" width="67.45" height="21.32" style="fill:#f3a71d"/><polygon points="187.22 7.94 187.22 29.27 216.12 29.27 216.12 18.61 203.62 7.94 187.22 7.94" style="fill:#f3a71d"/></g></g></g></svg>